<?xml version="1.0" encoding="UTF-8" standalone="no"?>
<!-- Created with Inkscape (http://www.inkscape.org/) -->

<svg
   width="512"
   height="512"
   viewBox="0 0 512 512"
   version="1.1"
   id="svg1"
   xml:space="preserve"
   inkscape:export-filename="位图.svg"
   inkscape:export-xdpi="96"
   inkscape:export-ydpi="96"
   inkscape:version="1.4.3 (0d15f75, 2025-12-25)"
   sodipodi:docname="ge.svg"
   xmlns:inkscape="http://www.inkscape.org/namespaces/inkscape"
   xmlns:sodipodi="http://sodipodi.sourceforge.net/DTD/sodipodi-0.dtd"
   xmlns="http://www.w3.org/2000/svg"
   xmlns:svg="http://www.w3.org/2000/svg">
   <sodipodi:namedview
   id="namedview1"
   pagecolor="#ffffff"
   bordercolor="#000000"
   borderopacity="0.25"
   inkscape:showpageshadow="2"
   inkscape:pageopacity="0.0"
   inkscape:pagecheckerboard="0"
   inkscape:deskcolor="#d1d1d1"
   inkscape:document-units="px"
   inkscape:zoom="0.50097656"
   inkscape:cx="116.77193"
   inkscape:cy="291.4308"
   inkscape:window-width="1366"
   inkscape:window-height="715"
   inkscape:window-x="-8"
   inkscape:window-y="-8"
   inkscape:window-maximized="1"
   inkscape:current-layer="svg1" />
   <defs
   id="defs1">
      
      
   <linearGradient
   id="SVGID_00000172412930222803330440000006457185136113301927_"
   gradientUnits="userSpaceOnUse"
   x1="1079.4698"
   y1="738.83771"
   x2="1095.1796"
   y2="-7.9612999">
						<stop
   offset="0.0804"
   style="stop-color:#D6560F"
   id="stop1281" />
						<stop
   offset="0.3005"
   style="stop-color:#E1700B"
   id="stop1282" />
						<stop
   offset="0.5932"
   style="stop-color:#EE8D07"
   id="stop1283" />
						<stop
   offset="0.7606"
   style="stop-color:#F39806"
   id="stop1284" />
					</linearGradient><linearGradient
   id="SVGID_00000005989309102269293700000001267362427920674699_"
   gradientUnits="userSpaceOnUse"
   x1="876.09741"
   y1="446.23489"
   x2="1293.512"
   y2="446.23489">
						<stop
   offset="0.0804"
   style="stop-color:#D6560F"
   id="stop1285" />
						<stop
   offset="0.113"
   style="stop-color:#E06D0C"
   id="stop1286" />
						<stop
   offset="0.1518"
   style="stop-color:#E98009"
   id="stop1287" />
						<stop
   offset="0.1968"
   style="stop-color:#EE8E07"
   id="stop1288" />
						<stop
   offset="0.2535"
   style="stop-color:#F29606"
   id="stop1289" />
						<stop
   offset="0.359"
   style="stop-color:#F39806"
   id="stop1290" />
					</linearGradient><linearGradient
   id="SVGID_00000119804554398772776470000004274658676328028550_"
   gradientUnits="userSpaceOnUse"
   x1="1115.8953"
   y1="188.4391"
   x2="1267.9214"
   y2="469.6756">
				<stop
   offset="0"
   style="stop-color:#FDD241"
   id="stop1291" />
				<stop
   offset="0.2898"
   style="stop-color:#FDD343"
   id="stop1292" />
				<stop
   offset="0.4281"
   style="stop-color:#FDD54B"
   id="stop1293" />
				<stop
   offset="0.5344"
   style="stop-color:#FDD958"
   id="stop1294" />
				<stop
   offset="0.6242"
   style="stop-color:#FCDE6A"
   id="stop1295" />
				<stop
   offset="0.7037"
   style="stop-color:#FCE582"
   id="stop1296" />
				<stop
   offset="0.7748"
   style="stop-color:#FCEE9F"
   id="stop1297" />
				<stop
   offset="0.838"
   style="stop-color:#FBF8C0"
   id="stop1298" />
				<stop
   offset="0.8567"
   style="stop-color:#F9EEB4"
   id="stop1299" />
				<stop
   offset="0.8909"
   style="stop-color:#F5D493"
   id="stop1300" />
				<stop
   offset="0.9367"
   style="stop-color:#EDAA5D"
   id="stop1301" />
				<stop
   offset="0.9918"
   style="stop-color:#E37014"
   id="stop1302" />
				<stop
   offset="1"
   style="stop-color:#E16709"
   id="stop1303" />
			</linearGradient><linearGradient
   id="SVGID_00000023976423477648042010000003632766365267427242_"
   gradientUnits="userSpaceOnUse"
   x1="1171.0959"
   y1="571.85132"
   x2="1248.4762"
   y2="714.99878">
				<stop
   offset="0.0804"
   style="stop-color:#E16709"
   id="stop1304" />
				<stop
   offset="0.1404"
   style="stop-color:#E88E3B"
   id="stop1305" />
				<stop
   offset="0.2059"
   style="stop-color:#EFB46A"
   id="stop1306" />
				<stop
   offset="0.2685"
   style="stop-color:#F4D18F"
   id="stop1307" />
				<stop
   offset="0.3263"
   style="stop-color:#F8E7AA"
   id="stop1308" />
				<stop
   offset="0.3777"
   style="stop-color:#FAF3BA"
   id="stop1309" />
				<stop
   offset="0.4173"
   style="stop-color:#FBF8C0"
   id="stop1310" />
				<stop
   offset="0.4938"
   style="stop-color:#FCE98F"
   id="stop1311" />
				<stop
   offset="0.57"
   style="stop-color:#FCDD65"
   id="stop1312" />
				<stop
   offset="0.6295"
   style="stop-color:#FDD54B"
   id="stop1313" />
				<stop
   offset="0.665"
   style="stop-color:#FDD241"
   id="stop1314" />
				<stop
   offset="0.7294"
   style="stop-color:#F5B331"
   id="stop1315" />
				<stop
   offset="0.8522"
   style="stop-color:#E77C14"
   id="stop1316" />
				<stop
   offset="0.9118"
   style="stop-color:#E16709"
   id="stop1317" />
			</linearGradient><linearGradient
   id="SVGID_00000181057583785317072390000003697054530389569185_"
   gradientUnits="userSpaceOnUse"
   x1="1073.8248"
   y1="222.7393"
   x2="1060.7435"
   y2="436.94919">
				<stop
   offset="0.0804"
   style="stop-color:#F39B00"
   id="stop1318" />
				<stop
   offset="0.1424"
   style="stop-color:#F5AE27"
   id="stop1319" />
				<stop
   offset="0.2536"
   style="stop-color:#F7CE68"
   id="stop1320" />
				<stop
   offset="0.3473"
   style="stop-color:#F9E598"
   id="stop1321" />
				<stop
   offset="0.4188"
   style="stop-color:#FBF3B5"
   id="stop1322" />
				<stop
   offset="0.4595"
   style="stop-color:#FBF8C0"
   id="stop1323" />
				<stop
   offset="0.4891"
   style="stop-color:#FAF3B9"
   id="stop1324" />
				<stop
   offset="0.5334"
   style="stop-color:#F8E6A4"
   id="stop1325" />
				<stop
   offset="0.5869"
   style="stop-color:#F5D183"
   id="stop1326" />
				<stop
   offset="0.6475"
   style="stop-color:#F1B355"
   id="stop1327" />
				<stop
   offset="0.7132"
   style="stop-color:#EB8E1A"
   id="stop1328" />
				<stop
   offset="0.7381"
   style="stop-color:#E97E02"
   id="stop1329" />
			</linearGradient></defs>
   
<g
   id="图层_10"
   style="display:inline"
   transform="matrix(0.64768316,0,0,0.64768316,-449.9684,-43.49145)"
   inkscape:label="Two">
			
			
				<linearGradient
   id="linearGradient23"
   gradientUnits="userSpaceOnUse"
   x1="1115.8953"
   y1="188.4391"
   x2="1267.9214"
   y2="469.6756">
				<stop
   offset="0"
   style="stop-color:#FDD241"
   id="stop11" />
				<stop
   offset="0.2898"
   style="stop-color:#FDD343"
   id="stop12" />
				<stop
   offset="0.4281"
   style="stop-color:#FDD54B"
   id="stop13" />
				<stop
   offset="0.5344"
   style="stop-color:#FDD958"
   id="stop14" />
				<stop
   offset="0.6242"
   style="stop-color:#FCDE6A"
   id="stop15" />
				<stop
   offset="0.7037"
   style="stop-color:#FCE582"
   id="stop16" />
				<stop
   offset="0.7748"
   style="stop-color:#FCEE9F"
   id="stop17" />
				<stop
   offset="0.838"
   style="stop-color:#FBF8C0"
   id="stop18" />
				<stop
   offset="0.8567"
   style="stop-color:#F9EEB4"
   id="stop19" />
				<stop
   offset="0.8909"
   style="stop-color:#F5D493"
   id="stop20" />
				<stop
   offset="0.9367"
   style="stop-color:#EDAA5D"
   id="stop21" />
				<stop
   offset="0.9918"
   style="stop-color:#E37014"
   id="stop22" />
				<stop
   offset="1"
   style="stop-color:#E16709"
   id="stop23" />
			</linearGradient>
			<path
   style="display:inline;fill:#020202;stroke:#000000;stroke-width:24.1032;stroke-miterlimit:10"
   d="m 1199.736,755.412 c -4.825,-0.011 -10.841,-0.771 -10.841,-0.771 -3.23,-0.431 -5.967,-0.953 -7.88,-1.319 l -0.947,-0.179 c -175.101,-32.826 -262.991,-49.303 -295.64,-58.384 -1.251,-0.348 -5.064,-1.407 -9.314,-4.203 -21.323,-14.031 -17.307,-45.228 -15.15,-61.988 l 0.227,-1.766 c 8.502,-66.052 12.768,-99.202 34.893,-122.509 16.343,-17.215 33.238,-23.829 49.577,-30.226 l 1.597,-0.625 c 102.609,-40.249 154.114,-60.452 178.038,-95.117 20.057,-29.061 20.069,-60.99 20.069,-60.99 0.26,-10.966 0.705,-29.808 -11.906,-40.201 -4.26,-3.511 -12.957,-8.487 -23.592,-8.572 -4.317,-0.035 -7.718,0.749 -9.17,1.123 -2.922,0.753 -10.352,3.154 -16.2,9.177 -10.109,10.412 -8.554,26.094 -6.755,44.253 1.965,19.821 4.41,44.488 -13.823,61.763 -2.773,2.628 -5.734,4.495 -7.301,5.399 -1.394,0.853 -4.912,2.905 -9.044,4.57 -4.207,1.696 -11.206,3.596 -31.217,4.831 -11.093,0.685 -24.975,1.062 -39.088,1.062 -14.716,0 -18.652,0.323 -24.891,-0.47 -3.411,-0.434 -16.654,-2.117 -24.256,-5.975 -20.171,-10.235 -22.182,-46.325 -21.931,-60.316 0.543,-30.235 9.08,-64.994 23.421,-95.367 11.263,-23.854 30.999,-60.129 72.733,-82.702 31.39,-16.978 60.565,-17.793 90.65,-18.633 14.14,-0.395 48.533,-0.24 89.722,12.678 18.297,5.738 37.938,12.544 60.679,28.05 21.528,14.68 38.19,33.04 49.525,54.572 9.975,18.95 21.398,51.296 19.171,97.777 -0.76,15.88 -3.931,40.783 -14.719,69.244 -17.177,45.32 -43.613,72.679 -61.105,90.782 -1.385,1.365 -2.77,2.731 -4.155,4.096 -3.141,3.009 -6.752,6.311 -10.458,9.56 -8.333,7.307 -21.822,18.447 -38.76,30.019 -19.121,13.063 -38.687,24.031 -58.156,32.599 -2.245,0.987 -4.494,1.946 -6.746,2.873 6.351,0.454 13.071,0.914 20.134,1.377 39.913,2.62 78.29,4.537 79.904,4.617 6.219,0.308 25.115,1.242 34.948,16.687 6.572,10.324 4.971,21.186 4.445,24.756 l -0.013,0.087 c -11.773,80.007 -14.142,95.326 -15.58,103.538 -0.091,0.52 -0.224,2.048 -0.729,4.047 -4.931,19.504 -28.657,30.802 -40.366,30.776 z M 1108.867,256.9 c 14.32,0 25.963,5.547 32.085,10.739 10.615,9.002 16.105,27.309 15.064,50.226 -1.082,23.833 -9.145,48.285 -22.121,67.086 -25.949,37.597 -78.562,58.234 -183.38,99.35 l -1.602,0.627 c -15.15,5.931 -30.816,12.064 -45.37,27.396 -19.502,20.544 -23.607,52.432 -31.784,115.96 l -0.228,1.771 c -1.832,14.236 -5.242,40.732 9.994,50.758 2.722,1.791 5.21,2.482 6.027,2.709 32.168,8.948 119.893,25.393 294.665,58.158 l 0.976,0.185 c 3.455,0.659 9.872,1.884 16.543,1.884 10.341,0 18.15,-2.885 23.207,-8.576 4.247,-4.78 5.213,-10.05 5.677,-12.582 1.605,-8.768 2.406,-13.143 16.251,-107.228 l 0.013,-0.089 c 0.448,-3.038 1.494,-10.139 -2.745,-16.798 -6.594,-10.357 -20.957,-11.068 -25.676,-11.301 -1.63,-0.081 -40.097,-2.002 -80.101,-4.628 -18.265,-1.199 -34.255,-2.373 -47.527,-3.49 l -30.345,-2.554 29.141,-8.837 c 10.383,-3.148 20.95,-7.079 31.408,-11.682 18.812,-8.279 37.746,-18.895 56.276,-31.554 16.458,-11.243 29.557,-22.062 37.648,-29.158 3.646,-3.197 7.19,-6.439 10.249,-9.375 0.979,-0.94 1.886,-1.826 2.697,-2.636 0.248,-0.247 0.538,-0.536 0.845,-0.871 l 4.046,-4.431 0.126,0.121 c 16.657,-17.383 39.475,-42.864 54.54,-82.611 10.246,-27.032 13.255,-50.631 13.976,-65.668 2.101,-43.855 -8.543,-74.12 -17.842,-91.787 -10.437,-19.828 -25.837,-36.774 -45.775,-50.369 -16.219,-11.059 -35.545,-19.978 -57.442,-26.51 -37.55,-11.201 -72.172,-12.412 -85.316,-12.412 -1.199,0 -2.122,0.011 -2.754,0.021 -26.505,0.436 -53.913,0.886 -83.265,17.343 -27.844,15.612 -51.32,42.414 -67.891,77.509 -13.662,28.933 -21.792,61.954 -22.306,90.597 0,0 -0.037,39.225 16.331,50.142 2.383,1.589 4.965,2.609 4.965,2.609 6.058,2.393 11.45,1.575 13.751,1.678 6.607,0.296 15.262,0.459 24.37,0.459 13.881,0 27.508,-0.369 38.37,-1.039 18.664,-1.151 24.677,-2.839 27.576,-4.007 3.482,-1.403 6.524,-3.215 7.373,-3.736 l 0.152,-0.09 c 0.686,-0.394 3.089,-1.831 5.157,-3.792 14.085,-13.346 12.131,-33.071 10.239,-52.147 -1.912,-19.287 -3.888,-39.231 9.993,-53.528 7.909,-8.146 17.781,-11.348 21.657,-12.347 3.845,-0.993 7.908,-1.495 12.082,-1.495 z m 90.869,486.072 c -6.599,0 -12.729,-1.17 -16.392,-1.869 l -1.052,-0.2 C 1007.584,708.151 919.891,691.71 887.769,682.776 c -0.8,-0.222 -3.2,-0.891 -5.816,-2.612 -14.831,-9.759 -11.461,-35.942 -9.65,-50.008 l 0.227,-1.764 c 8.156,-63.367 12.249,-95.173 31.577,-115.533 14.434,-15.206 30.019,-21.307 45.09,-27.207 l 1.6,-0.626 c 104.969,-41.175 157.656,-61.841 183.738,-99.633 26.787,-38.81 30.279,-98.536 6.921,-118.346 -7.825,-6.636 -20.616,-10.924 -32.588,-10.924 -4.24,0 -8.37,0.511 -12.274,1.516 -3.941,1.015 -13.975,4.271 -22.021,12.558 -14.133,14.556 -12.138,34.683 -10.209,54.146 1.872,18.89 3.809,38.422 -10,51.506 -2.055,1.948 -4.411,3.343 -5.096,3.732 -0.721,0.446 -3.81,2.307 -7.341,3.73 -11.49,4.63 -53.159,4.99 -65.656,4.99 -9.102,0 -17.744,-0.162 -24.335,-0.458 -10.933,-0.49 -12.72,-1.109 -14.197,-2 -0.272,-0.166 -0.895,-0.538 -1.733,-0.976 -0.808,-0.423 -1.448,-0.713 -1.689,-0.822 -0.181,-0.082 -0.43,-0.194 -0.747,-0.39 -10.726,-6.53 -16.393,-24.097 -15.938,-49.451 0.512,-28.536 8.615,-61.442 22.231,-90.278 11.507,-24.37 32.571,-57.54 67.569,-77.163 29.181,-16.361 56.489,-16.81 82.898,-17.244 0.626,-0.011 1.546,-0.021 2.74,-0.021 v 0 c 23.557,0.001 143.321,4.29 187.845,88.876 9.254,17.581 19.846,47.707 17.753,91.387 -0.718,14.984 -3.717,38.498 -13.926,65.43 -16.269,42.923 -41.634,69.175 -58.419,86.547 -0.801,0.829 -19.982,20.553 -51.444,42.047 -29.118,19.894 -74.591,44.964 -125.859,51.426 -0.034,0.005 -0.151,0.02 -0.302,0.047 -0.154,0.028 -0.308,0.065 -0.459,0.109 21.996,4.177 111.688,9.79 168.167,12.583 5.11,0.253 18.683,0.924 25.06,10.943 4.084,6.416 3.066,13.317 2.631,16.263 l -0.014,0.093 c -13.844,94.082 -14.644,98.45 -16.238,107.154 -0.459,2.509 -1.397,7.635 -5.503,12.254 -4.904,5.517 -12.517,8.315 -22.626,8.315 z m -90.87,-498.513 c 14.797,0 30.174,5.246 40.132,13.692 13.575,11.513 20.663,33.484 19.445,60.278 -1.186,26.1 -10.046,52.921 -24.31,73.588 -28.106,40.724 -81.901,61.825 -189.074,103.863 l -1.611,0.631 c -14.521,5.685 -28.237,11.054 -40.883,24.376 -16.705,17.598 -20.636,48.141 -28.468,108.991 l -0.227,1.764 c -1.272,9.882 -4.251,33.023 4.494,38.777 1.091,0.718 2.093,0.997 2.521,1.116 31.649,8.803 119.177,25.212 293.557,57.903 l 1.09,0.207 c 3.257,0.622 8.709,1.663 14.205,1.663 6.633,0 11.313,-1.481 13.908,-4.401 1.938,-2.181 2.42,-4.815 2.74,-6.56 1.578,-8.617 2.366,-12.919 16.18,-106.799 l 0.015,-0.096 c 0.285,-1.939 0.818,-5.548 -0.932,-8.298 -3.138,-4.931 -12.666,-5.402 -15.797,-5.557 -0.433,-0.021 -43.817,-2.176 -86.941,-5.081 -25.365,-1.709 -45.692,-3.34 -60.418,-4.848 -8.831,-0.905 -15.759,-1.779 -20.592,-2.599 -7.662,-1.3 -11.316,-2.493 -12.711,-6.125 -0.816,-2.123 -0.879,-4.098 -0.879,-4.653 l 0.017,-0.441 c 0.41,-5.405 4.742,-9.198 8.66,-10.945 1.161,-0.518 2.395,-0.897 3.667,-1.127 0.447,-0.081 0.792,-0.125 0.885,-0.137 48.887,-6.162 92.529,-30.228 120.537,-49.332 30.547,-20.837 49.674,-40.482 49.864,-40.678 16.119,-16.683 40.48,-41.896 55.9,-82.575 9.667,-25.504 12.503,-47.714 13.181,-61.855 1.967,-41.055 -7.847,-69.099 -16.424,-85.397 -41.4,-78.652 -155.134,-82.644 -177.524,-82.645 -1.109,0 -1.962,0.01 -2.546,0.02 -26.114,0.429 -50.777,0.834 -77.389,15.755 -53.157,29.805 -82.871,103.381 -83.842,157.478 -0.425,23.675 4.897,35.687 10.112,39.133 0.443,0.204 1.163,0.544 2.008,0.986 0.687,0.36 1.275,0.69 1.718,0.948 2.831,0.505 14.36,1.157 33.14,1.157 30.035,0 55.241,-1.704 61.296,-4.145 2.94,-1.185 5.594,-2.848 5.62,-2.865 l 0.317,-0.187 c 0.436,-0.242 1.831,-1.103 2.839,-2.058 9.66,-9.153 8.156,-24.323 6.415,-41.889 -2.09,-21.083 -4.458,-44.979 13.447,-63.421 10.107,-10.41 22.584,-14.467 27.479,-15.727 4.85,-1.25 9.958,-1.884 15.179,-1.885 z m -62.968,332.533 v 0 c 0,0.001 0,0.001 0,0 z"
   id="path1278" /><path
   style="display:inline;fill:#f09307"
   d="m 1093.068,155.329 c 22.047,0 139.53,3.777 182.684,85.761 19.239,36.55 17.636,76.979 17.089,88.392 -0.418,8.73 -2.187,33.654 -13.553,63.642 -15.557,41.045 -39.635,66.424 -57.16,84.562 0,0 -76.827,79.513 -173.838,91.74 0,0 -0.01,10e-4 -0.015,0.002 -0.062,0.008 -0.293,0.038 -0.59,0.091 -0.545,0.098 -1.393,0.297 -2.327,0.714 -2.249,1.003 -5.006,3.235 -5.22,6.059 0,0 0,0 0,0 0,0 0,1.283 0.491,2.562 2.443,6.36 175.507,14.92 175.507,14.92 4.749,0.235 15.774,0.938 20.428,8.25 2.956,4.643 2.118,9.993 1.768,12.375 -13.83,93.99 -14.622,98.311 -16.205,106.954 -0.386,2.107 -1.082,6.005 -4.125,9.429 -4.416,4.969 -11.494,6.358 -18.267,6.358 -6.616,0 -12.942,-1.327 -16.206,-1.938 -174.872,-32.783 -262.308,-49.174 -294.198,-58.044 -0.609,-0.169 -2.309,-0.639 -4.174,-1.866 -11.592,-7.628 -8.805,-30.925 -7.071,-44.393 8.14,-63.233 12.063,-94.868 30.25,-114.026 14.023,-14.773 29.06,-20.328 44.589,-26.419 106.209,-41.661 159.314,-62.491 186.409,-101.749 28.716,-41.607 31.411,-104.464 5.893,-126.106 -8.302,-7.041 -21.99,-12.308 -36.36,-12.308 -4.557,0 -9.184,0.53 -13.729,1.701 -3.173,0.817 -15.112,4.216 -24.75,14.143 -30.424,31.335 4.748,81.999 -20.036,105.481 -1.814,1.719 -4.052,2.942 -4.052,2.942 0,0 -3.048,1.931 -6.555,3.344 -8.318,3.352 -38.558,4.568 -63.476,4.568 -18.421,0 -33.935,-0.665 -35.523,-1.621 -0.058,-0.035 -0.877,-0.54 -2.039,-1.148 -1.171,-0.613 -2.06,-0.997 -2.087,-1.013 -29.74,-18.107 -10.818,-159.471 73.66,-206.838 27.896,-15.641 54.094,-16.072 80.142,-16.5 0.608,-0.01 1.495,-0.021 2.646,-0.021 m -0.287,-12.943 c -27.179,0.614 -56.924,1.286 -88.584,18.613 -40.277,22.043 -59.339,56.865 -70.312,80.105 -14.001,29.653 -22.334,63.543 -22.863,92.981 0,0 0.704,43.032 19.129,55.228 2.784,1.843 5.788,3.034 5.788,3.034 6.715,2.663 12.618,1.96 15.699,2.098 6.685,0.299 15.433,0.464 24.631,0.464 13.999,0 27.753,-0.373 38.729,-1.05 19.291,-1.19 25.843,-2.987 29.397,-4.419 3.861,-1.556 7.185,-3.525 8.245,-4.176 1.08,-0.619 3.804,-2.283 6.268,-4.618 16.158,-15.31 13.965,-37.435 12.031,-56.955 -1.862,-18.789 -3.622,-36.536 8.374,-48.891 6.878,-7.084 15.528,-9.886 18.928,-10.762 3.367,-0.867 6.942,-1.307 10.625,-1.307 12.756,0 23.225,5.04 28.313,9.355 9.091,7.71 13.955,24.725 13.01,45.514 -1.035,22.772 -8.724,46.113 -21.095,64.038 -24.937,36.131 -76.996,56.551 -180.712,97.234 l -1.596,0.625 c -15.745,6.164 -32.025,12.538 -47.473,28.811 -20.814,21.926 -25,54.447 -33.339,119.238 l -0.227,1.764 c -1.995,15.498 -5.708,44.345 12.572,56.373 3.484,2.293 6.635,3.169 7.671,3.457 32.414,9.015 120.252,25.482 295.248,58.288 l 0.868,0.165 c 3.637,0.694 10.406,1.987 17.63,1.987 12.079,0 21.353,-3.544 27.565,-10.534 5.333,-6 6.54,-12.592 7.055,-15.406 l 0.01,-0.045 c 1.607,-8.774 2.414,-13.178 16.276,-107.385 l 0.014,-0.093 c 0.495,-3.359 1.811,-12.282 -3.595,-20.774 -8.213,-12.901 -24.843,-13.724 -30.308,-13.994 -0.389,-0.019 -39.363,-1.955 -80.007,-4.623 -19.807,-1.3 -35.301,-2.462 -47.419,-3.482 10.634,-3.225 21.34,-7.205 32.065,-11.924 19.142,-8.424 38.392,-19.216 57.216,-32.077 16.698,-11.408 29.992,-22.387 38.204,-29.588 3.702,-3.247 7.313,-6.55 10.441,-9.552 1.008,-0.968 1.943,-1.881 2.779,-2.715 0.304,-0.304 0.658,-0.657 1.032,-1.067 l 0.012,0.011 c 17.161,-17.761 43.095,-44.601 59.846,-88.797 10.516,-27.746 13.606,-51.997 14.347,-67.456 2.164,-45.168 -8.87,-76.473 -18.507,-94.782 -10.885,-20.68 -26.917,-38.334 -47.65,-52.471 -6.577,-4.485 -12.888,-8.224 -19.008,-11.42 -4.708,-2.459 -18.648,-9.588 -40.053,-15.86 -17.913,-5.25 -47.941,-14.049 -87.268,-13.16 z"
   id="path1281" /><path
   style="display:inline;fill:url(#SVGID_00000172412930222803330440000006457185136113301927_);stroke:url(#SVGID_00000005989309102269293700000001267362427920674699_);stroke-width:0.7775;stroke-miterlimit:10"
   d="m 1050.353,371.616 c 24.783,-23.482 -10.388,-74.146 20.036,-105.481 9.638,-9.926 21.577,-13.325 24.75,-14.143 18.875,-4.863 39.153,1.333 50.089,10.607 25.518,21.642 22.823,84.499 -5.893,126.106 -27.095,39.258 -80.2,60.089 -186.409,101.749 -15.529,6.091 -30.565,11.647 -44.589,26.419 -18.187,19.158 -22.11,50.793 -30.25,114.026 -1.734,13.468 -4.521,36.765 7.071,44.392 1.865,1.227 3.565,1.697 4.174,1.866 31.89,8.87 119.326,25.261 294.198,58.044 6.606,1.238 25.743,5.402 34.473,-4.42 3.043,-3.424 3.739,-7.321 4.125,-9.428 1.583,-8.643 2.375,-12.965 16.205,-106.954 0.35,-2.382 1.188,-7.732 -1.768,-12.375 -4.655,-7.312 -15.679,-8.015 -20.428,-8.25 0,0 -173.065,-8.56 -175.507,-14.92 -0.491,-1.279 -0.491,-2.562 -0.491,-2.562 0,0 0,0 0,0 0.214,-2.825 2.971,-5.057 5.22,-6.06 0.935,-0.417 1.782,-0.616 2.327,-0.714 0.297,-0.054 0.528,-0.084 0.59,-0.091 0.01,-10e-4 0.014,-0.002 0.015,-0.002 97.011,-12.227 173.838,-91.739 173.838,-91.74 17.526,-18.138 41.603,-43.517 57.16,-84.562 11.366,-29.988 13.135,-54.912 13.553,-63.642 0.547,-11.413 2.15,-51.842 -17.089,-88.392 -45.407,-86.264 -173.104,-85.941 -185.329,-85.74 -26.048,0.428 -52.246,0.859 -80.142,16.5 -82.047,46.003 -107.1,183.595 -73.66,206.838 0.819,0.569 2.602,1.446 4.125,2.161 13.247,6.213 24.109,4.611 41.317,3.605 0,0 49.609,-2.9 57.682,-6.551 0.238,-0.107 6.555,-0.047 6.555,-3.344 -10e-4,0 2.238,-1.224 4.052,-2.942 z"
   id="path1290" /><path
   style="display:inline;fill:url(#SVGID_00000119804554398772776470000004274658676328028550_)"
   d="m 984.353,176.564 c 25.714,-9.727 65.34,-20.549 113.731,-17.973 26.31,1.401 70.856,4.32 115.794,33.589 15.718,10.237 39.521,25.831 55.392,53.919 48.987,86.695 -29.144,202.646 -38.991,216.855 -23.17,33.434 -49.352,55.745 -68.357,69.535 21.661,-9.728 72.609,-36.295 106.463,-93.892 4.553,-7.747 67.857,-119.829 7.955,-211.061 0,0 -49.054,-74.639 -175.311,-81.91 -32.182,-1.853 -59.223,5.304 -59.223,5.304 -4.397,1.164 -17.542,4.837 -33.549,12.375 -9.762,4.598 -17.784,9.313 -23.904,13.259 z"
   id="path1303" />
			
				<linearGradient
   id="linearGradient37"
   gradientUnits="userSpaceOnUse"
   x1="1171.0959"
   y1="571.85132"
   x2="1248.4762"
   y2="714.99878">
				<stop
   offset="0.0804"
   style="stop-color:#E16709"
   id="stop24" />
				<stop
   offset="0.1404"
   style="stop-color:#E88E3B"
   id="stop25" />
				<stop
   offset="0.2059"
   style="stop-color:#EFB46A"
   id="stop26" />
				<stop
   offset="0.2685"
   style="stop-color:#F4D18F"
   id="stop27" />
				<stop
   offset="0.3263"
   style="stop-color:#F8E7AA"
   id="stop28" />
				<stop
   offset="0.3777"
   style="stop-color:#FAF3BA"
   id="stop29" />
				<stop
   offset="0.4173"
   style="stop-color:#FBF8C0"
   id="stop30" />
				<stop
   offset="0.4938"
   style="stop-color:#FCE98F"
   id="stop31" />
				<stop
   offset="0.57"
   style="stop-color:#FCDD65"
   id="stop32" />
				<stop
   offset="0.6295"
   style="stop-color:#FDD54B"
   id="stop33" />
				<stop
   offset="0.665"
   style="stop-color:#FDD241"
   id="stop34" />
				<stop
   offset="0.7294"
   style="stop-color:#F5B331"
   id="stop35" />
				<stop
   offset="0.8522"
   style="stop-color:#E77C14"
   id="stop36" />
				<stop
   offset="0.9118"
   style="stop-color:#E16709"
   id="stop37" />
			</linearGradient>
			<path
   style="display:inline;fill:url(#SVGID_00000023976423477648042010000003632766365267427242_)"
   d="m 1141.986,587.587 c 10.597,4.776 24.115,9.771 40.218,13.259 13.067,2.83 24.905,4.032 34.915,4.42 1.385,0.187 4.425,0.804 7.071,3.241 4.125,3.799 3.988,10.014 3.928,12.571 -0.472,20.233 -5.107,48.517 -5.107,48.517 -2.537,15.484 -6.675,49.253 -11,59.517 -1.592,3.778 -3.536,7.268 -3.536,7.268 -1.856,3.332 -3.701,6.031 -5.205,8.053 4.237,0.298 10.51,0.091 16.598,-3.143 14.001,-7.437 14.995,-24.495 22,-66.49 8.51,-51.015 13.903,-66.963 3.241,-77.196 -5.607,-5.381 -13.098,-6.729 -18.268,-7.071 -28.284,-0.982 -56.57,-1.964 -84.855,-2.946 z"
   id="path1317" />
			
				<linearGradient
   id="linearGradient49"
   gradientUnits="userSpaceOnUse"
   x1="1073.8248"
   y1="222.7393"
   x2="1060.7435"
   y2="436.94919">
				<stop
   offset="0.0804"
   style="stop-color:#F39B00"
   id="stop38" />
				<stop
   offset="0.1424"
   style="stop-color:#F5AE27"
   id="stop39" />
				<stop
   offset="0.2536"
   style="stop-color:#F7CE68"
   id="stop40" />
				<stop
   offset="0.3473"
   style="stop-color:#F9E598"
   id="stop41" />
				<stop
   offset="0.4188"
   style="stop-color:#FBF3B5"
   id="stop42" />
				<stop
   offset="0.4595"
   style="stop-color:#FBF8C0"
   id="stop43" />
				<stop
   offset="0.4891"
   style="stop-color:#FAF3B9"
   id="stop44" />
				<stop
   offset="0.5334"
   style="stop-color:#F8E6A4"
   id="stop45" />
				<stop
   offset="0.5869"
   style="stop-color:#F5D183"
   id="stop46" />
				<stop
   offset="0.6475"
   style="stop-color:#F1B355"
   id="stop47" />
				<stop
   offset="0.7132"
   style="stop-color:#EB8E1A"
   id="stop48" />
				<stop
   offset="0.7381"
   style="stop-color:#E97E02"
   id="stop49" />
			</linearGradient>
			<path
   style="display:inline;fill:url(#SVGID_00000181057583785317072390000003697054530389569185_)"
   d="m 1029.777,370.143 c 1.058,-0.029 7.297,-0.299 11.737,-5.451 3.105,-3.603 3.617,-7.606 3.732,-9.085 -0.07,-2.673 -0.156,-6.62 -0.197,-11.393 -0.326,-38.543 -0.489,-57.815 5.598,-70.714 0.689,-1.46 14.63,-29.861 43.017,-34.031 3.685,-0.541 23.645,-3.488 38.451,10.754 11.062,10.641 12.533,24.259 12.817,28.138 -2.957,-3.757 -9.834,-11.435 -21.361,-15.763 -4.053,-1.522 -18.933,-7.109 -34.326,0.295 -14.631,7.037 -19.755,21.003 -21.214,25.044 -1.07,2.963 -2.525,7.901 -1.915,28.875 0.864,29.737 4.359,41.462 -3.388,53.33 -2.256,3.457 -4.788,5.818 -6.482,7.219 0,0 -3.813,3.407 -8.103,5.746 -8.02,4.372 -18.22,2.72 -30.053,1.62 -6.774,-0.63 -16.505,-1.304 -28.58,-1.326 2.521,-2.184 5.595,-4.449 9.281,-6.482 12.232,-6.749 24.279,-7.138 30.986,-6.776 z"
   id="path1329" />
		</g></svg>
