<?xml version="1.0" encoding="UTF-8" standalone="no"?>
<svg width="512" height="512" shape-rendering="geometricPrecision" text-rendering="geometricPrecision"
   image-rendering="optimizeQuality" fill-rule="evenodd" clip-rule="evenodd" version="1.1" id="svg9"
   sodipodi:docname="delturbia.svg" xml:space="preserve" inkscape:version="1.4.3 (0d15f75, 2025-12-25)"
   xmlns:inkscape="http://www.inkscape.org/namespaces/inkscape"
   xmlns:sodipodi="http://sodipodi.sourceforge.net/DTD/sodipodi-0.dtd" xmlns:xlink="http://www.w3.org/1999/xlink"
   xmlns="http://www.w3.org/2000/svg" xmlns:svg="http://www.w3.org/2000/svg">
   <defs id="defs9">
      <linearGradient id="linearGradient52" inkscape:collect="always">
         <stop style="stop-color:#ffffff;stop-opacity:1;" offset="0.24249999" id="stop52" />
         <stop style="stop-color:#ff7b94;stop-opacity:1;" offset="1" id="stop53" />
      </linearGradient>


      <linearGradient inkscape:collect="always" xlink:href="#linearGradient52" id="linearGradient53" x1="267.32812"
         y1="23.918076" x2="267.32812" y2="501.36725" gradientUnits="userSpaceOnUse" />
      <linearGradient inkscape:collect="always" xlink:href="#linearGradient52" id="linearGradient71"
         gradientUnits="userSpaceOnUse" x1="267.32812" y1="23.918076" x2="267.32812" y2="501.36725"
         gradientTransform="translate(-10.24,-3.7236365)" />
      <linearGradient inkscape:collect="always" xlink:href="#linearGradient52" id="linearGradient72"
         gradientUnits="userSpaceOnUse" x1="267.32812" y1="23.918076" x2="267.32812" y2="501.36725"
         gradientTransform="translate(-10.24,-3.7236365)" />
      <linearGradient inkscape:collect="always" xlink:href="#linearGradient52" id="linearGradient73"
         gradientUnits="userSpaceOnUse" x1="267.32812" y1="23.918076" x2="267.32812" y2="501.36725"
         gradientTransform="translate(-10.24,-3.7236365)" />
      <linearGradient inkscape:collect="always" xlink:href="#linearGradient52" id="linearGradient74"
         gradientUnits="userSpaceOnUse" x1="267.32812" y1="23.918076" x2="267.32812" y2="501.36725"
         gradientTransform="translate(-10.24,-3.7236365)" />
      <linearGradient inkscape:collect="always" xlink:href="#linearGradient52" id="linearGradient75"
         gradientUnits="userSpaceOnUse" x1="267.32812" y1="23.918076" x2="267.32812" y2="501.36725"
         gradientTransform="translate(-10.24,-3.7236365)" />
      <linearGradient inkscape:collect="always" xlink:href="#linearGradient52" id="linearGradient76"
         gradientUnits="userSpaceOnUse" x1="267.32812" y1="23.918076" x2="267.32812" y2="501.36725"
         gradientTransform="translate(-10.24,-3.7236365)" />
      <linearGradient inkscape:collect="always" xlink:href="#linearGradient52" id="linearGradient77"
         gradientUnits="userSpaceOnUse" x1="267.32812" y1="23.918076" x2="267.32812" y2="501.36725"
         gradientTransform="translate(-10.24,-3.7236365)" />
      <linearGradient inkscape:collect="always" xlink:href="#linearGradient52" id="linearGradient78"
         gradientUnits="userSpaceOnUse" x1="267.32812" y1="23.918076" x2="267.32812" y2="501.36725"
         gradientTransform="translate(-10.24,-3.7236365)" />
      <linearGradient inkscape:collect="always" xlink:href="#linearGradient52" id="linearGradient79"
         gradientUnits="userSpaceOnUse" x1="267.32812" y1="23.918076" x2="267.32812" y2="501.36725"
         gradientTransform="translate(-10.24,-3.7236365)" />
   </defs>
   <sodipodi:namedview id="namedview9" pagecolor="#ffffff" bordercolor="#111111" borderopacity="1"
      inkscape:showpageshadow="0" inkscape:pageopacity="0" inkscape:pagecheckerboard="1" inkscape:deskcolor="#d1d1d1"
      inkscape:zoom="0.53710935" inkscape:cx="177.80364" inkscape:cy="310.92365" inkscape:window-width="1366"
      inkscape:window-height="715" inkscape:window-x="-8" inkscape:window-y="-8" inkscape:window-maximized="1"
      inkscape:current-layer="layer1" />

   <g inkscape:groupmode="layer" id="layer1" inkscape:label="Main"
      style="display:inline;fill:#000000;fill-opacity:1;stroke:#000000;stroke-width:5;stroke-dasharray:none;stroke-opacity:1"
      transform="translate(0,4.6545457)">




      <path
         style="fill:#000000;fill-opacity:1;stroke:#000000;stroke-width:5;stroke-linecap:round;stroke-linejoin:round;stroke-dasharray:none;stroke-opacity:1"
         d="m 211.36315,203.94896 c 9.32459,37.33119 10.24419,88.64091 8.37818,122.88001 10.81313,11.27053 35.9341,11.98617 48.87273,-0.93091 L 267.2177,211.86169 c -4.86389,0.53932 -11.40354,-1.435 -11.63637,6.05091 -0.32405,31.86658 0.72272,62.06824 3.72364,89.60001 -3.50244,6.84447 -19.91982,7.26755 -20.94546,-0.23273 -1.47862,-36.10865 5.80137,-53.7142 5.12,-102.86546 -10.73913,-4.16846 -26.17905,-15.18183 -32.11636,-0.46546 z"
         id="path5" sodipodi:nodetypes="ccccccccc" />
      <path
         style="fill:#000000;fill-opacity:1;stroke:#000000;stroke-width:5;stroke-linecap:round;stroke-linejoin:round;stroke-dasharray:none;stroke-opacity:1"
         d="m 145.23415,168.00032 96.76306,-1.64563 0.32913,26.65921 c -12.29328,-1.18162 -22.82032,-4.42386 -38.50775,-1.64563 -3.72747,39.08614 -3.5035,75.91431 -2.96214,112.56112 h -19.08931 c -2.3248,-29.47507 3.60844,-50.55798 3.29126,-107.95335 -1.06375,-2.38495 -1.21602,-5.11171 -5.59514,-6.2534 -26.04785,3.53069 -31.04514,-8.42865 -34.22911,-21.72232 z"
         id="path4" sodipodi:nodetypes="ccccccccc" />
      <path
         style="fill:#000000;fill-opacity:1;stroke:#000000;stroke-width:5;stroke-linecap:round;stroke-linejoin:round;stroke-dasharray:none;stroke-opacity:1"
         d="m 85.991465,178.53236 -1.974766,137.24557 c 18.717531,2.72139 23.532151,-4.55551 45.017261,-4.95343 1.79582,-5.97757 5.79404,-19.44556 -2.56,-24.66791 l -20.73494,1.3165 c -7.92608,0.43023 -4.39117,-33.57165 -0.32913,-33.24173 l 31.26698,-2.63301 c 6.36944,-1.23248 15.03986,-14.8667 -4.60777,-13.8233 l -19.74756,3.29126 c -8.84112,-4.3338 -5.42247,-29.31082 -4.93689,-38.17862 1.24832,-7.35344 9.20425,-11.09509 18.43106,-14.15242 l 17.7728,-0.98738 c 1.6176,-17.51603 -34.15916,-7.80258 -57.597045,-9.21553 z"
         id="path2" sodipodi:nodetypes="ccccccccccccc" />
      <path id="path1"
         style="fill:#000000;fill-opacity:1;stroke:#000000;stroke-width:5;stroke-linecap:round;stroke-linejoin:round;stroke-dasharray:none;stroke-opacity:1"
         d="m 43.890644,174.01077 c -8.998108,-0.0779 -17.651001,4.05175 -22.583984,16.22656 l 0.833984,109.74219 c 2.894319,8.15834 8.029772,14.99925 25.671875,14.48242 6.646969,-2.35948 20.5954,-5.35932 33.242187,-20.40625 -1.032965,-33.50674 -0.663673,-65.60982 -4.9375,-102.35742 -1.276349,-5.73902 -17.229715,-17.55771 -32.226562,-17.6875 z m -5.951172,24.26953 c 25.609636,22.58484 18.850663,60.95872 20.734375,95.11718 l -21.392578,-1.9746 z" />
      <path
         style="fill:#000000;fill-opacity:1;stroke:#000000;stroke-width:5;stroke-linecap:round;stroke-linejoin:round;stroke-dasharray:none;stroke-opacity:1"
         d="m 149.92315,196.50169 -5.58546,145.68728 66.09455,0.93091 c -0.25414,-5.25708 0.25388,-11.84792 -2.32727,-13.03273 l -40.96,-0.93091 c -3.74339,-43.50308 -1.81501,-86.29718 1.39636,-128.93091 z"
         id="path3" sodipodi:nodetypes="ccccccc" />
      <path id="path6"
         style="fill:#000000;fill-opacity:1;stroke:#000000;stroke-width:5;stroke-linecap:round;stroke-linejoin:round;stroke-dasharray:none;stroke-opacity:1"
         d="m 271.87306,196.9678 2.32617,142.89453 14.53321,-0.38672 c -0.23036,-13.72453 1.22916,-29.05292 -2.30274,-47.72461 2.25624,-4.25263 13.6338,-3.19516 15.79688,-0.98633 l 15.46875,55.29297 h 66.48437 l -0.33008,-8.22852 -50.68359,0.33008 c -6.52182,-19.04884 -11.99773,-37.39908 -14.8125,-53.97656 l 14.8125,-12.17773 v -52.33203 l -23.36914,-21.06446 z m 35.14063,24.66797 3.72461,49.57226 -22.57422,0.23242 0.69726,-49.10547 z" />
      <path id="path7"
         style="fill:#000000;fill-opacity:1;stroke:#000000;stroke-width:5;stroke-linecap:round;stroke-linejoin:round;stroke-dasharray:none;stroke-opacity:1"
         d="m 370.02736,175.24123 -30.9375,2.30469 -0.33008,133.95313 c 10.11412,2.60162 23.86042,-0.24214 36.20508,-0.98633 4.2004,-6.20889 10.8444,-10.38105 18.75976,-13.49414 -2.09304,-18.06324 -4.42709,-35.92117 -2.30468,-57.59766 v -44.43164 z m -9.48242,12.85352 c 3.22215,-0.0574 6.43814,1.06378 8.60742,4.45117 l 1.16406,41.89063 c -22.7286,6.32102 -18.35065,-21.99624 -20.01562,-42.58985 1.94806,-1.65722 6.10137,-3.67814 10.24414,-3.75195 z m 2.55664,70.77734 c 12.0313,2.96064 9.42499,17.71779 14.42968,28.39258 -3.10319,6.12817 -7.74439,9.18255 -13.0332,10.93945 -1.45456,-13.11051 -4.48194,-26.66559 -1.39648,-39.33203 z" />
      <path
         style="fill:#000000;fill-opacity:1;stroke:#000000;stroke-width:5;stroke-linecap:round;stroke-linejoin:round;stroke-dasharray:none;stroke-opacity:1"
         d="m 397.67385,175.57022 -0.98738,137.90383 22.05145,-1.97476 c -5.52707,-48.1212 1.33641,-51.29472 1.97475,-135.92907 z"
         id="path9" sodipodi:nodetypes="ccccc" />
      <path id="path10"
         style="fill:#000000;fill-opacity:1;stroke:#000000;stroke-width:5;stroke-linecap:round;stroke-linejoin:round;stroke-dasharray:none;stroke-opacity:1"
         d="m 476.43947,175.09084 -33.2793,0.93164 -19.08398,134.98047 15.59179,2.32813 c 0.087,-12.45489 2.69092,-23.90268 0,-37.46875 l 33.04883,-5.1211 9.54102,45.38282 13.49804,-0.23243 c -7.09212,-33.22793 -1.56248,-60.91673 -19.3164,-140.80078 z m -11.16992,28.625 6.74804,45.38282 -16.29101,-1.39649 c 0.56179,-15.75299 1.66362,-31.28232 9.54297,-43.98633 z" />
   </g>
   <g inkscape:groupmode="layer" id="g63" inkscape:label="Main"
      style="display:inline;fill:url(#linearGradient53);fill-opacity:1;stroke:#000000;stroke-width:2;stroke-dasharray:none;stroke-opacity:1">




      <path
         style="fill:url(#linearGradient71);fill-opacity:1;stroke:#000000;stroke-width:2.5;stroke-linecap:round;stroke-linejoin:round;stroke-dasharray:none;stroke-opacity:1"
         d="m 209.92001,206.66182 c 9.32459,37.33119 10.24419,88.64091 8.37818,122.88001 10.81313,11.27053 35.9341,11.98617 48.87273,-0.93091 l -1.39636,-114.03637 c -4.86389,0.53932 -11.40354,-1.435 -11.63637,6.05091 -0.32405,31.86658 0.72272,62.06824 3.72364,89.60001 -3.50244,6.84447 -19.91982,7.26755 -20.94546,-0.23273 -1.47862,-36.10865 5.80137,-53.7142 5.12,-102.86546 -10.73913,-4.16846 -26.17905,-15.18183 -32.11636,-0.46546 z"
         id="path55" sodipodi:nodetypes="ccccccccc" />
      <path
         style="fill:url(#linearGradient72);fill-opacity:1;stroke:#000000;stroke-width:2.5;stroke-linecap:round;stroke-linejoin:round;stroke-dasharray:none;stroke-opacity:1"
         d="m 143.79101,170.71318 96.76306,-1.64563 0.32913,26.65921 c -12.29328,-1.18162 -22.82032,-4.42386 -38.50775,-1.64563 -3.72747,39.08614 -3.5035,75.91431 -2.96214,112.56112 H 180.324 c -2.3248,-29.47507 3.60844,-50.55798 3.29126,-107.95335 -1.06375,-2.38495 -1.21602,-5.11171 -5.59514,-6.2534 -26.04785,3.53069 -31.04514,-8.42865 -34.22911,-21.72232 z"
         id="path56" sodipodi:nodetypes="ccccccccc" />
      <path
         style="fill:url(#linearGradient73);fill-opacity:1;stroke:#000000;stroke-width:2.5;stroke-linecap:round;stroke-linejoin:round;stroke-dasharray:none;stroke-opacity:1"
         d="m 84.548311,181.24522 -1.974756,137.24557 c 18.717535,2.72139 23.532155,-4.55551 45.017265,-4.95343 1.79582,-5.97757 5.79404,-19.44556 -2.56,-24.66791 l -20.73494,1.3165 c -7.92608,0.43023 -4.39117,-33.57165 -0.32913,-33.24173 l 31.26698,-2.63301 c 6.36944,-1.23248 15.03986,-14.8667 -4.60777,-13.8233 l -19.74756,3.29126 c -8.84112,-4.3338 -5.42247,-29.31082 -4.93689,-38.17862 1.24832,-7.35344 9.20425,-11.09509 18.43106,-14.15242 l 17.7728,-0.98738 c 1.6176,-17.51603 -34.15916,-7.80258 -57.597059,-9.21553 z"
         id="path57" sodipodi:nodetypes="ccccccccccccc" />
      <path id="path58"
         style="fill:url(#linearGradient74);fill-opacity:1;stroke:#000000;stroke-width:2.5;stroke-linecap:round;stroke-linejoin:round;stroke-dasharray:none;stroke-opacity:1"
         d="m 42.4475,176.72363 c -8.998108,-0.0779 -17.651001,4.05175 -22.583984,16.22656 L 20.6975,302.69238 c 2.894319,8.15834 8.029772,14.99925 25.671875,14.48242 6.646969,-2.35948 20.5954,-5.35932 33.242187,-20.40625 -1.032965,-33.50674 -0.663673,-65.60982 -4.9375,-102.35742 -1.276349,-5.73902 -17.229715,-17.55771 -32.226562,-17.6875 z m -5.951172,24.26953 c 25.609636,22.58484 18.850663,60.95872 20.734375,95.11718 l -21.392578,-1.9746 z" />
      <path
         style="fill:url(#linearGradient75);fill-opacity:1;stroke:#000000;stroke-width:2.5;stroke-linecap:round;stroke-linejoin:round;stroke-dasharray:none;stroke-opacity:1"
         d="m 148.48001,199.21455 -5.58546,145.68728 66.09455,0.93091 c -0.25414,-5.25708 0.25388,-11.84792 -2.32727,-13.03273 l -40.96,-0.93091 c -3.74339,-43.50308 -1.81501,-86.29718 1.39636,-128.93091 z"
         id="path59" sodipodi:nodetypes="ccccccc" />
      <path id="path60"
         style="fill:url(#linearGradient76);fill-opacity:1;stroke:#000000;stroke-width:2.5;stroke-linecap:round;stroke-linejoin:round;stroke-dasharray:none;stroke-opacity:1"
         d="m 270.42992,199.68066 2.32617,142.89453 14.53321,-0.38672 c -0.23036,-13.72453 1.22916,-29.05292 -2.30274,-47.72461 2.25624,-4.25263 13.6338,-3.19516 15.79688,-0.98633 l 15.46875,55.29297 h 66.48437 l -0.33008,-8.22852 -50.68359,0.33008 c -6.52182,-19.04884 -11.99773,-37.39908 -14.8125,-53.97656 l 14.8125,-12.17773 v -52.33203 l -23.36914,-21.06446 z m 35.14063,24.66797 3.72461,49.57226 -22.57422,0.23242 0.69726,-49.10547 z" />
      <path id="path61"
         style="fill:url(#linearGradient77);fill-opacity:1;stroke:#000000;stroke-width:2.5;stroke-linecap:round;stroke-linejoin:round;stroke-dasharray:none;stroke-opacity:1"
         d="m 368.58422,177.95409 -30.9375,2.30469 -0.33008,133.95313 c 10.11412,2.60162 23.86042,-0.24214 36.20508,-0.98633 4.2004,-6.20889 10.8444,-10.38105 18.75976,-13.49414 -2.09304,-18.06324 -4.42709,-35.92117 -2.30468,-57.59766 v -44.43164 z m -9.48242,12.85352 c 3.22215,-0.0574 6.43814,1.06378 8.60742,4.45117 l 1.16406,41.89063 c -22.7286,6.32102 -18.35065,-21.99624 -20.01562,-42.58985 1.94806,-1.65722 6.10137,-3.67814 10.24414,-3.75195 z m 2.55664,70.77734 c 12.0313,2.96064 9.42499,17.71779 14.42968,28.39258 -3.10319,6.12817 -7.74439,9.18255 -13.0332,10.93945 -1.45456,-13.11051 -4.48194,-26.66559 -1.39648,-39.33203 z" />
      <path
         style="fill:url(#linearGradient78);fill-opacity:1;stroke:#000000;stroke-width:2.5;stroke-linecap:round;stroke-linejoin:round;stroke-dasharray:none;stroke-opacity:1"
         d="m 396.23071,178.28308 -0.98738,137.90383 22.05145,-1.97476 c -5.52707,-48.1212 1.33641,-51.29472 1.97475,-135.92907 z"
         id="path62" sodipodi:nodetypes="ccccc" />
      <path id="path63"
         style="fill:url(#linearGradient79);fill-opacity:1;stroke:#000000;stroke-width:2.5;stroke-linecap:round;stroke-linejoin:round;stroke-dasharray:none;stroke-opacity:1"
         d="m 474.99633,177.8037 -33.2793,0.93164 -19.08398,134.98047 15.59179,2.32813 c 0.087,-12.45489 2.69092,-23.90268 0,-37.46875 l 33.04883,-5.1211 9.54102,45.38282 13.49804,-0.23243 c -7.09212,-33.22793 -1.56248,-60.91673 -19.3164,-140.80078 z m -11.16992,28.625 6.74804,45.38282 -16.29101,-1.39649 c 0.56179,-15.75299 1.66362,-31.28232 9.54297,-43.98633 z" />
   </g>
</svg>