<?xml version="1.0" encoding="UTF-8" standalone="no"?>
<svg width="512" height="512" shape-rendering="geometricPrecision" text-rendering="geometricPrecision"
  image-rendering="optimizeQuality" fill-rule="evenodd" clip-rule="evenodd" version="1.1" id="svg9"
  sodipodi:docname="eae.svg" xml:space="preserve" inkscape:version="1.4.3 (0d15f75, 2025-12-25)"
  xmlns:inkscape="http://www.inkscape.org/namespaces/inkscape"
  xmlns:sodipodi="http://sodipodi.sourceforge.net/DTD/sodipodi-0.dtd" xmlns="http://www.w3.org/2000/svg"
  xmlns:svg="http://www.w3.org/2000/svg">
  <defs id="defs9">










  </defs>
  <sodipodi:namedview id="namedview9" pagecolor="#ffffff" bordercolor="#111111" borderopacity="1"
    inkscape:showpageshadow="0" inkscape:pageopacity="0" inkscape:pagecheckerboard="1" inkscape:deskcolor="#d1d1d1"
    inkscape:zoom="0.5" inkscape:cx="197" inkscape:cy="354" inkscape:window-width="1366" inkscape:window-height="715"
    inkscape:window-x="-8" inkscape:window-y="-8" inkscape:window-maximized="1" inkscape:current-layer="layer4" />
  <g inkscape:groupmode="layer" id="layer2" inkscape:label="Main">






    <g inkscape:groupmode="layer" id="layer4" inkscape:label="E">
      <path
        style="fill:#053223;fill-opacity:1;stroke:#053223;stroke-width:13.4014;stroke-linecap:round;stroke-linejoin:round;stroke-dasharray:none;stroke-opacity:1"
        d="m 367.25965,130.74808 h 109.55681 l 3.68539,67.00723 c -9.57704,-5.38008 -14.43376,-15.61558 -17.75691,-25.46274 l -41.54447,-1.00511 0.67007,44.89483 c 11.39026,-1.72757 24.72065,6.73049 32.8895,-11.90948 5.17467,9.95369 12.6619,19.13652 20.4809,28.20874 -10.1377,9.53139 -18.76089,20.45106 -18.30801,39.69047 -6.9666,-13.01679 -21.29249,-16.04601 -40.75801,-12.09998 l -0.33503,62.65177 c 11.82609,0.5328 19.61186,6.62105 37.85907,-1.67519 11.26565,-5.30297 22.00199,-15.257 26.13284,-26.80289 11.30209,17.30559 -2.35951,46.33937 -0.67009,70.35758 l -123.96337,3.35036 c -1.67137,-10.94452 4.15376,-21.88903 22.11239,-32.83354 V 163.58162 c -18.35,-9.44454 -35.02177,-19.05693 -10.05108,-32.83354 z"
        id="path5" sodipodi:nodetypes="cccccccccccccccccc" />
      <path
        style="fill:#ffffff;fill-opacity:1;stroke:#053223;stroke-width:2.68029;stroke-linecap:round;stroke-linejoin:round;stroke-dasharray:none;stroke-opacity:1"
        d="m 373.26578,133.65014 h 109.55683 l 3.68538,67.00723 c -9.57704,-5.38009 -14.43376,-15.61558 -17.7569,-25.46275 l -41.54448,-1.0051 0.67005,44.89484 c 11.39028,-1.72759 24.72064,6.73048 32.88951,-11.9095 5.17466,9.9537 12.66192,19.13653 20.4809,28.20876 -10.1377,9.53136 -18.76088,20.45105 -18.308,39.69045 -6.9666,-13.01678 -21.29249,-16.046 -40.75801,-12.09997 l -0.33503,62.65174 c 11.82609,0.53283 19.61186,6.62108 37.85908,-1.67517 11.26564,-5.30296 22.00199,-15.25699 26.13281,-26.80289 11.30212,17.3056 -2.35947,46.33936 -0.67007,70.35759 l -123.96336,3.35037 c -1.67137,-10.94453 4.15374,-21.88904 22.11237,-32.83356 v -171.5385 c -18.34999,-9.44455 -35.02175,-19.05692 -10.05108,-32.83354 z"
        id="path6" sodipodi:nodetypes="cccccccccccccccccc" />
    </g>
    <g inkscape:groupmode="layer" id="layer3" inkscape:label="A" transform="translate(-10)">
      <path id="path3"
        style="fill:#053223;fill-opacity:1;stroke:#053223;stroke-width:15.5669;stroke-linecap:round;stroke-linejoin:round;stroke-dasharray:none;stroke-opacity:1"
        d="m 235.34147,150.43443 c -8.21854,0.80906 -7.38142,27.83601 2.42016,28.7806 -14.27175,52.55127 -19.57388,102.86191 -28.61945,154.10663 -20.63902,2.98594 -19.25053,13.56844 -19.26409,23.66663 2.18516,8.41545 19.71983,4.55048 31.92135,4.95283 14.68368,-0.45513 34.21609,1.51357 42.38039,-2.20126 -4.15938,-18.62704 -11.26402,-24.98637 -19.8144,-25.31756 l 1.92762,-25.04393 44.02828,-0.82394 3.57858,27.51881 c -19.50831,8.97955 -16.59963,23.42769 -13.76092,33.84897 24.77854,-4.76341 61.06662,-6.34649 72.65078,-18.44012 -2.26312,-12.30137 -23.95137,-10.34733 -25.86788,-26.41819 -3.85261,-50.451 -15.57871,-107.36651 -16.22975,-150.18451 11.07335,2.14063 13.18882,-10.65241 15.12912,-23.73351 z m 35.59417,44.89176 18.68031,87.95323 c 0,0 -39.3065,1.16752 -40.8632,1.16752 -1.55669,0 22.18289,-89.12075 22.18289,-89.12075 z" />
      <path id="path4"
        style="fill:#fffffe;fill-opacity:1;stroke:#053223;stroke-width:3.11339;stroke-linecap:round;stroke-linejoin:round;stroke-dasharray:none;stroke-opacity:1"
        d="m 240.7899,153.54781 c -8.21853,0.80907 -7.38143,27.83602 2.42016,28.78062 -14.27176,52.55125 -19.57387,102.86189 -28.61944,154.10662 -20.63902,2.98593 -19.25055,13.56844 -19.2641,23.66661 2.18516,8.41546 19.71983,4.55049 31.92136,4.95285 14.68367,-0.45513 34.21608,1.51356 42.38039,-2.20126 -4.15938,-18.62703 -11.26403,-24.98637 -19.81441,-25.31755 l 1.92761,-25.04394 44.0283,-0.82395 3.57858,27.51882 c -19.50834,8.97954 -16.59965,23.42769 -13.76095,33.84898 24.77855,-4.76344 61.06666,-6.34652 72.65081,-18.44014 -2.26312,-12.30138 -23.95137,-10.34732 -25.86789,-26.4182 -3.85261,-50.45098 -15.5787,-107.36649 -16.22974,-150.18449 11.07335,2.14061 13.1888,-10.65241 15.12911,-23.7335 z m 35.59417,44.89178 18.68033,87.95322 c 0,0 -39.30654,1.16752 -40.86322,1.16752 -1.5567,0 22.18289,-89.12074 22.18289,-89.12074 z" />
    </g>
    <g inkscape:groupmode="layer" id="layer1" inkscape:label="E">
      <path
        style="fill:#053223;fill-opacity:1;stroke:#053223;stroke-width:13.4998;stroke-linecap:round;stroke-linejoin:round;stroke-dasharray:none;stroke-opacity:1"
        d="m 36.158552,119.16417 2.386448,21.95523 15.989124,12.64811 2.863723,174.20986 c -30.822771,8.6662 -24.757909,18.75118 -23.864362,28.63723 7.359142,8.67394 97.525695,21.00067 131.253995,22.90979 -5.39496,-7.77689 -6.18268,-36.32776 -1.90915,-68.72938 -11.36379,15.72357 -23.53807,21.58798 -40.09212,21.47795 -18.15288,-3.13816 -22.12459,-9.82158 -25.29622,-16.70505 l -0.4773,-50.59246 h 28.15995 l 10.9776,15.75048 c 5.10053,-19.29943 10.3488,-33.46505 20.52336,-36.27384 -10.4687,-8.1455 -15.13134,-21.1425 -20.52336,-34.36469 -4.93197,8.90291 -8.43206,13.82657 -13.36404,13.84135 l -20.04606,-0.47729 0.47728,-49.1606 c 8.25048,-0.87974 15.60531,-2.39922 32.45555,2.86373 13.23976,2.1577 18.60176,17.91612 25.88932,31.97824 0.60866,-23.37188 -8.30257,-51.24075 3.70249,-67.77479 -51.17149,-5.58995 -88.792348,-14.19113 -129.106228,-22.19387 z"
        id="path1" sodipodi:nodetypes="ccccccccccccccccccccc" />
      <path
        style="fill:#ffffff;fill-opacity:1;stroke:#053223;stroke-width:2.69994;stroke-linecap:round;stroke-linejoin:round;stroke-dasharray:none;stroke-opacity:1"
        d="m 41.886021,121.07334 2.386427,21.95521 15.989121,12.64811 2.863731,174.20986 c -30.822776,8.66621 -24.75792,18.75118 -23.864375,28.63725 7.35915,8.67394 97.525695,21.00063 131.254005,22.90978 -5.39496,-7.77689 -6.18268,-36.32776 -1.90915,-68.72937 -11.36378,15.72355 -23.53807,21.58797 -40.09212,21.47794 -18.15287,-3.13816 -22.12459,-9.82159 -25.29623,-16.70506 l -0.47729,-50.59246 h 28.15994 l 10.97761,15.75048 c 5.10053,-19.29942 10.3488,-33.46505 20.52335,-36.27383 -10.46869,-8.1455 -15.13134,-21.14249 -20.52335,-34.36469 -4.93197,8.90289 -8.43208,13.82656 -13.36404,13.84134 l -20.04606,-0.47728 0.47727,-49.1606 c 8.25049,-0.87973 15.60531,-2.39922 32.45555,2.86374 13.23978,2.15768 18.60178,17.91612 25.88933,31.97823 0.60866,-23.37189 -8.30257,-51.24076 3.70249,-67.77479 -51.17149,-5.58993 -88.792354,-14.19112 -129.106209,-22.19386 z"
        id="path2" sodipodi:nodetypes="ccccccccccccccccccccc" />
    </g>
  </g>
</svg>