<?xml version="1.0" encoding="UTF-8" standalone="no"?>
<!-- Created with Inkscape (http://www.inkscape.org/) -->

<svg
   width="425.75174"
   height="359.64642"
   viewBox="0 0 425.75174 359.64642"
   version="1.1"
   id="svg1"
   inkscape:version="1.4.3 (0d15f75, 2025-12-25)"
   sodipodi:docname="svg.full.svg"
   xml:space="preserve"
   xmlns:inkscape="http://www.inkscape.org/namespaces/inkscape"
   xmlns:sodipodi="http://sodipodi.sourceforge.net/DTD/sodipodi-0.dtd"
   xmlns="http://www.w3.org/2000/svg"
   xmlns:svg="http://www.w3.org/2000/svg"><sodipodi:namedview
     id="namedview1"
     pagecolor="#ffffff"
     bordercolor="#000000"
     borderopacity="0.25"
     inkscape:showpageshadow="2"
     inkscape:pageopacity="0.0"
     inkscape:pagecheckerboard="0"
     inkscape:deskcolor="#d1d1d1"
     inkscape:document-units="px"
     inkscape:zoom="0.70710678"
     inkscape:cx="133.64318"
     inkscape:cy="186.67619"
     inkscape:window-width="1366"
     inkscape:window-height="715"
     inkscape:window-x="-8"
     inkscape:window-y="-8"
     inkscape:window-maximized="1"
     inkscape:current-layer="layer1" /><defs
     id="defs1" /><g
     inkscape:label="Main"
     inkscape:groupmode="layer"
     id="layer1"
     transform="translate(-44.020034,-82.526164)"><g
       inkscape:groupmode="layer"
       id="layer4"
       inkscape:label="Head"
       style="display:inline"><path
         style="display:inline;opacity:1;fill:#ffffff;fill-opacity:1;stroke:#000000;stroke-width:9.28999;stroke-linecap:round;stroke-linejoin:round;stroke-opacity:1"
         d="M 281.69207,436.50536 C 331.20378,429.83108 433.50157,398.9706 438.5116,333.30426 444.49494,254.88068 341.19673,184.30402 262.66617,179.94399 183.55425,175.55168 98.69956,291.599 102.38739,345.9882 c 3.87218,57.10821 119.5877,98.56713 179.30468,90.51716 z"
         id="path5"
         sodipodi:nodetypes="sssss" /><path
         id="path17"
         style="display:inline;opacity:1;fill:#f2f2f2;fill-opacity:1;stroke:none;stroke-width:9.28999;stroke-linecap:round;stroke-linejoin:round;stroke-opacity:1"
         d="m 363.94062,221.11278 c 2.41793,31.28436 -0.0945,54.53771 -19.99098,72.73436 -95.87322,87.68242 -161.23613,75.43291 -234.05452,64.42027 18.9795,50.06847 115.43996,81.16604 170.40116,73.75716 49.51171,-6.67429 148.59328,-32.99808 153.60331,-98.66442 3.40752,-44.66236 -27.23937,-83.45635 -69.95897,-112.24737 z"
         sodipodi:nodetypes="cscssc" /></g><g
       inkscape:groupmode="layer"
       id="layer5"
       inkscape:label="Face"
       style="display:inline"><path
         style="opacity:1;fill:#000000;fill-opacity:1;stroke:#000000;stroke-width:9.28999;stroke-linecap:round;stroke-linejoin:round;stroke-opacity:1"
         d="m 371.63269,361.57736 -0.28828,-65.43756 c 13.50983,1.91499 17.96771,9.28748 18.35253,33.66354 -0.91072,13.25043 -8.07038,32.53454 -18.06425,31.77402 z"
         id="path7"
         sodipodi:nodetypes="cccc" /><path
         style="opacity:1;fill:#000000;fill-opacity:1;stroke:#000000;stroke-width:9.28999;stroke-linecap:round;stroke-linejoin:round;stroke-opacity:1"
         d="m 238.42682,373.93907 c -9.91172,-1.71973 -30.99848,-20.29504 -30.91297,-39.29655 0.12053,-26.79298 12.19765,-44.31808 27.12284,-47.28228 z"
         id="path8"
         sodipodi:nodetypes="cscc" /><path
         style="opacity:1;fill:#000000;fill-opacity:1;stroke:#000000;stroke-width:9.28999;stroke-linecap:round;stroke-linejoin:round;stroke-opacity:1"
         d="m 289.83886,362.35298 c 12.5974,-2.45563 25.22418,-4.89029 45.25215,-2.03837 -3.63214,8.32638 -11.78395,12.13309 -20.79152,15.08405 -14.23391,-1.30837 -18.52516,-7.58808 -24.46063,-13.04568 z"
         id="path9"
         sodipodi:nodetypes="cccc" /><path
         style="opacity:1;fill:none;fill-opacity:1;stroke:#000000;stroke-width:9.28999;stroke-linecap:round;stroke-linejoin:round;stroke-opacity:1"
         d="m 315.75502,370.94128 c -8.44708,20.73829 -17.89681,28.41427 -36.34855,22.77259"
         id="path10"
         sodipodi:nodetypes="cc" /><path
         style="opacity:1;fill:none;fill-opacity:1;stroke:#000000;stroke-width:9.28999;stroke-linecap:round;stroke-linejoin:round;stroke-opacity:1"
         d="m 313.56534,376.19649 c 8.73072,14.66234 20.1364,19.81252 32.84507,7.88281"
         id="path11"
         sodipodi:nodetypes="cc" /></g><g
       inkscape:groupmode="layer"
       id="layer2"
       inkscape:label="Hat"
       style="display:inline"><path
         style="display:inline;fill:#fabed2;fill-opacity:1;stroke:#000000;stroke-width:9.28999;stroke-linecap:round;stroke-linejoin:round;stroke-opacity:1;paint-order:normal"
         d="M 98.26091,344.91365 C 59.19818,276.04222 116.75208,132.45099 258.88567,117.42987 363.44097,106.38013 505.19586,223.28712 440.70962,318.00696 325.27133,283.15944 211.54264,306.43809 98.26091,344.91365 Z"
         id="path1"
         sodipodi:nodetypes="cscc" /><path
         id="path16"
         style="display:inline;fill:#f2b8cc;fill-opacity:1;stroke:none;stroke-width:9.28999;stroke-linecap:round;stroke-linejoin:round;stroke-opacity:1;paint-order:normal"
         d="m 346.41972,138.29304 c 21.24609,65.9445 33.62483,122.54293 -2.47008,155.5541 -2.74306,2.50871 -0.96881,0.56124 -3.67003,2.91038 34.84081,1.05023 63.33037,5.25606 98.45212,15.85831 C 485.53119,243.87499 423.8172,173.0159 346.41972,138.29304 Z"
         sodipodi:nodetypes="csccc" /><path
         style="display:inline;opacity:1;fill:none;stroke:#000000;stroke-width:9.28999;stroke-linecap:round;stroke-linejoin:round;stroke-opacity:1"
         d="m 86.82075,302.74751 c 113.17028,-58.8777 234.53062,-72.25519 367.2575,-22.48514"
         id="path2"
         sodipodi:nodetypes="cc" /></g><g
       inkscape:groupmode="layer"
       id="layer3"
       inkscape:label="Ear"
       style="display:inline"><path
         style="display:inline;opacity:1;fill:#fabed2;fill-opacity:1;stroke:#000000;stroke-width:9.28999;stroke-linecap:round;stroke-linejoin:round;stroke-opacity:1"
         d="M 90.18082,285.79696 C 62.91158,271.01576 30.984922,215.4823 60.51581,107.62864 c 26.40711,32.05574 67.11623,70.36071 94.83686,69.36304"
         id="path3"
         sodipodi:nodetypes="ccc" /><path
         style="display:inline;opacity:1;fill:#f2b8cc;fill-opacity:1;stroke:#000000;stroke-width:9.28999;stroke-linecap:round;stroke-linejoin:round;stroke-opacity:1"
         d="m 390.33715,166.78384 c -0.38483,-29.5341 27.49231,-58.357 74.7898,-79.613018 -17.93511,81.941388 -12.76796,124.742338 -8.74253,167.723678"
         id="path4"
         sodipodi:nodetypes="ccc" /><path
         style="display:inline;opacity:1;fill:#ffffff;fill-opacity:1;stroke:none;stroke-width:9.28999;stroke-linecap:round;stroke-linejoin:round;stroke-opacity:1"
         d="m 70.20461,153.25863 c 0.63925,33.57648 5.26355,83.35029 19.81864,90.73224 l 30.65697,-47.06929 C 93.74567,187.50537 83.68457,168.47171 70.20461,153.25863 Z"
         id="path12"
         sodipodi:nodetypes="cccc" /><path
         style="opacity:1;fill:#ffffff;fill-opacity:1;stroke:none;stroke-width:9.28999;stroke-linecap:round;stroke-linejoin:round;stroke-opacity:1"
         d="m 443.66296,116.08552 c -24.87071,14.43875 -42.91611,42.80905 -35.50381,59.09911 l 31.74379,41.01557 c -4.42458,-31.13905 0.67555,-68.27921 3.76002,-100.11468 z"
         id="path13"
         sodipodi:nodetypes="cccc" /></g></g></svg>
