<?xml version="1.0" encoding="UTF-8" standalone="no"?>
<svg
   width="512"
   height="512"
   shape-rendering="geometricPrecision"
   text-rendering="geometricPrecision"
   image-rendering="optimizeQuality"
   fill-rule="evenodd"
   clip-rule="evenodd"
   version="1.1"
   id="svg9"
   sodipodi:docname="Teacher.svg"
   xml:space="preserve"
   inkscape:version="1.4.3 (0d15f75, 2025-12-25)"
   xmlns:inkscape="http://www.inkscape.org/namespaces/inkscape"
   xmlns:sodipodi="http://sodipodi.sourceforge.net/DTD/sodipodi-0.dtd"
   xmlns="http://www.w3.org/2000/svg"
   xmlns:svg="http://www.w3.org/2000/svg">
   <defs
   id="defs9" />
   <sodipodi:namedview
   id="namedview9"
   pagecolor="#ffffff"
   bordercolor="#111111"
   borderopacity="1"
   inkscape:showpageshadow="0"
   inkscape:pageopacity="0"
   inkscape:pagecheckerboard="1"
   inkscape:deskcolor="#d1d1d1"
   inkscape:zoom="0.75958732"
   inkscape:cx="285.68144"
   inkscape:cy="246.18631"
   inkscape:window-width="1366"
   inkscape:window-height="715"
   inkscape:window-x="-8"
   inkscape:window-y="-8"
   inkscape:window-maximized="1"
   inkscape:current-layer="layer2" />

   <g
   inkscape:groupmode="layer"
   id="layer2"
   inkscape:label="head"
   style="display:inline"><path
     style="display:inline;fill:#ffff99;fill-opacity:1;stroke:#000000;stroke-width:8;stroke-linecap:round;stroke-linejoin:round;stroke-dasharray:none;stroke-opacity:1"
     d="m 319.91055,360.72219 c -4.86644,-18.36997 16.94652,-52.77457 -19.08931,-51.34367 162.88141,-2.92535 97.00158,-210.585536 -40.81163,-208.66594 -156.48611,2.17969 -189.425807,204.92363 -55.29319,206.69118 -37.54054,5.89428 -5.28955,34.22155 -7.89902,51.34367 32.5298,47.74208 74.43748,43.54515 123.09315,1.97476 z"
     id="path4"
     sodipodi:nodetypes="ccsccc" /><path
     id="path10"
     style="display:inline;fill:#ffff66;fill-opacity:0.4;stroke:none;stroke-width:8;stroke-linecap:round;stroke-linejoin:round;stroke-dasharray:none;stroke-opacity:1"
     d="m 312.1543,110.64062 c 77.07012,192.93978 -63.30099,212.70926 -82.91797,202.14454 l -1.48047,29.50586 c -23.076,7.19129 -29.48403,-12.02793 -40.01367,-26.31641 -6.13702,11.31282 11.00636,30.10843 9.07617,42.77344 32.5298,47.74208 74.43613,43.545 123.0918,1.97461 -4.78022,-18.0445 16.18331,-51.56093 -17.22657,-51.38672 138.45981,-3.85609 108.44773,-157.7153 9.47071,-198.69532 z" /><path
     style="display:inline;fill:none;fill-opacity:1;stroke:#000000;stroke-width:8;stroke-linecap:round;stroke-linejoin:round;stroke-dasharray:none;stroke-opacity:1"
     d="m 319.91055,360.72219 c -4.86644,-18.36997 16.94652,-52.77457 -19.08931,-51.34367 162.88141,-2.92535 97.00158,-210.585536 -40.81163,-208.66594 -156.48611,2.17969 -189.425807,204.92363 -55.29319,206.69118 -37.54054,5.89428 -5.28955,34.22155 -7.89902,51.34367 32.5298,47.74208 74.43748,43.54515 123.09315,1.97476 z"
     id="path11"
     sodipodi:nodetypes="ccsccc" /><g
     inkscape:groupmode="layer"
     id="layer3"
     inkscape:label="face"><path
       style="display:inline;fill:#000000;fill-opacity:1;stroke:#000000;stroke-width:5;stroke-linecap:round;stroke-linejoin:round;stroke-dasharray:none;stroke-opacity:1"
       d="m 162.98211,243.72879 c -6.70473,11.75736 77.19649,25.24807 131.16263,24.18157 33.84636,-0.66889 57.77887,-0.47338 57.04074,-21.68489 -8.06647,27.55485 -156.33866,16.69105 -188.20337,-2.49668 z"
       id="path5"
       sodipodi:nodetypes="cscc" /><path
       style="fill:#000000;fill-opacity:1;stroke:#000000;stroke-width:5;stroke-linecap:round;stroke-linejoin:round;stroke-dasharray:none;stroke-opacity:1"
       d="m 188.09556,188.91837 c -7.93284,-0.27842 -9.94773,44.98372 -0.65825,44.76115 12.5317,-0.30026 10.48268,-44.41634 0.65825,-44.76115 z"
       id="path6"
       sodipodi:nodetypes="sss" /><path
       style="display:inline;fill:#000000;fill-opacity:1;stroke:#000000;stroke-width:5;stroke-linecap:round;stroke-linejoin:round;stroke-dasharray:none;stroke-opacity:1"
       d="m 318.59405,182.50041 c -7.60847,-0.29864 -8.29228,42.89564 -0.32913,42.62183 12.10913,-0.41637 8.49218,-42.30143 0.32913,-42.62183 z"
       id="path7"
       sodipodi:nodetypes="sss" /><path
       style="fill:#000000;fill-opacity:1;stroke:#170000;stroke-width:2;stroke-linecap:round;stroke-linejoin:round;stroke-dasharray:none;stroke-opacity:1"
       d="m 304.64002,156.16001 c 15.88799,-7.35313 33.25368,-4.67073 33.97818,7.68 -11.72195,-6.91477 -22.86469,-7.45826 -33.97818,-7.68 z"
       id="path8"
       sodipodi:nodetypes="ccc" /><path
       style="display:inline;fill:#000000;fill-opacity:1;stroke:#170000;stroke-width:2;stroke-linecap:round;stroke-linejoin:round;stroke-dasharray:none;stroke-opacity:1"
       d="m 205.12411,163.89692 c -15.88799,-7.35313 -33.25368,-4.67073 -33.97818,7.68 11.72195,-6.91477 22.86469,-7.45826 33.97818,-7.68 z"
       id="path8-9"
       sodipodi:nodetypes="ccc" /><path
       style="fill:none;fill-opacity:1;stroke:#000000;stroke-width:5;stroke-linecap:round;stroke-linejoin:round;stroke-dasharray:none;stroke-opacity:0.5"
       d="m 253.09796,379.15325 c -18.22209,-5.41857 -8.03396,-29.89497 -29.29222,-72.07861 20.25089,22.51973 42.80683,21.76066 59.57182,1.97475 -20.5577,35.76812 -10.93143,65.8204 -30.2796,70.10386 z"
       id="path9"
       sodipodi:nodetypes="cccc" /></g></g>
<g
   inkscape:groupmode="layer"
   id="layer1"
   inkscape:label="base"
   style="display:inline"><path
     style="fill:#c8c8c8;fill-opacity:1;stroke:#000000;stroke-width:6;stroke-linecap:round;stroke-linejoin:round;stroke-dasharray:none;stroke-opacity:1"
     d="m 193.19701,420 c -14.43231,26.34151 36.6454,24.21272 63.04737,23.58351 23.21724,-0.55331 70.11081,-0.75516 58.72928,-23.58351 20.61607,-0.56399 18.53679,-36.95524 4.27864,-35 17.57494,-5.81456 9.37243,-24.45146 -0.65825,-25 -43.56534,19.64583 -83.69475,19.83648 -121.1184,0 -15.50171,-2.74272 -18.41395,22.4767 -4.60777,25 -16.70741,-1.86121 -15.60027,31.46202 0.32913,35 z"
     id="path1"
     sodipodi:nodetypes="cscccccc" /><path
     style="display:inline;fill:none;fill-opacity:1;stroke:#000000;stroke-width:6;stroke-linecap:round;stroke-linejoin:round;stroke-opacity:1;stroke-dasharray:none"
     d="m 192.86788,385 c 26.6546,16.7519 95.57519,20.71308 126.38442,0"
     id="path2"
     sodipodi:nodetypes="cc" /><path
     style="display:inline;fill:none;fill-opacity:1;stroke:#000000;stroke-width:6;stroke-linecap:round;stroke-linejoin:round;stroke-opacity:1;stroke-dasharray:none"
     d="m 193.19701,420 c 37.40195,8.0735 81.73643,7.42648 121.77665,0"
     id="path3"
     sodipodi:nodetypes="cc" /></g></svg>
