<?xml version="1.0" encoding="UTF-8" standalone="no"?>
<svg
   width="512"
   height="512"
   shape-rendering="geometricPrecision"
   text-rendering="geometricPrecision"
   image-rendering="optimizeQuality"
   fill-rule="evenodd"
   clip-rule="evenodd"
   version="1.1"
   id="svg9"
   sodipodi:docname="girls.svg"
   xml:space="preserve"
   inkscape:version="1.4.3 (0d15f75, 2025-12-25)"
   xmlns:inkscape="http://www.inkscape.org/namespaces/inkscape"
   xmlns:sodipodi="http://sodipodi.sourceforge.net/DTD/sodipodi-0.dtd"
   xmlns:xlink="http://www.w3.org/1999/xlink"
   xmlns="http://www.w3.org/2000/svg"
   xmlns:svg="http://www.w3.org/2000/svg">
   <defs
   id="defs9"><linearGradient
   id="linearGradient7"
   inkscape:collect="always"><stop
     style="stop-color:#b4eb0a;stop-opacity:1;"
     offset="0"
     id="stop7" /><stop
     style="stop-color:#46c832;stop-opacity:1;"
     offset="1"
     id="stop8" /></linearGradient><linearGradient
   id="linearGradient5"
   inkscape:collect="always"><stop
     style="stop-color:#b4eb0a;stop-opacity:1;"
     offset="0"
     id="stop5" /><stop
     style="stop-color:#46c832;stop-opacity:1;"
     offset="1"
     id="stop6" /></linearGradient>
      
      
      
      
      
      
      
      
   <linearGradient
   inkscape:collect="always"
   xlink:href="#linearGradient5"
   id="linearGradient6"
   x1="177.89941"
   y1="193.94138"
   x2="177.89941"
   y2="345.28702"
   gradientUnits="userSpaceOnUse"
   gradientTransform="matrix(1.2161546,0,0,1.2161546,-49.104468,-65.239078)" /><linearGradient
   inkscape:collect="always"
   xlink:href="#linearGradient7"
   id="linearGradient8"
   x1="348.89151"
   y1="154.09286"
   x2="348.89151"
   y2="345.80557"
   gradientUnits="userSpaceOnUse"
   gradientTransform="matrix(1.0047202,0,0,1.2181346,-8.9357478,-71.39464)" /></defs>
   <sodipodi:namedview
   id="namedview9"
   pagecolor="#ffffff"
   bordercolor="#111111"
   borderopacity="1"
   inkscape:showpageshadow="0"
   inkscape:pageopacity="0"
   inkscape:pagecheckerboard="1"
   inkscape:deskcolor="#d1d1d1"
   inkscape:zoom="0.75958732"
   inkscape:cx="306.08726"
   inkscape:cy="327.80958"
   inkscape:window-width="1366"
   inkscape:window-height="715"
   inkscape:window-x="-8"
   inkscape:window-y="-8"
   inkscape:window-maximized="1"
   inkscape:current-layer="layer1" />

   
<g
   inkscape:groupmode="layer"
   id="layer1"
   inkscape:label="Main"><path
     id="path1"
     style="fill:url(#linearGradient6);stroke:#005a32;stroke-width:6.08077;stroke-linecap:round;stroke-linejoin:round;stroke-opacity:1"
     d="m 149.86745,119.5808 -10.47271,56.32316 -56.040486,-3.962 -5.09503,39.62478 48.681816,6.79337 -27.171076,73.58685 45.783946,37.69367 -32.76492,42.68894 41.89082,33.39674 39.0571,-53.20914 60.53129,34.55216 3.59592,-46.89741 -36.95614,-20.48617 c 24.33153,-12.03038 30.91792,-75.09104 35.33025,-138.49199 l -64.76499,-4.15678 10.19006,-52.07849 z m 35.18535,100.57029 10.00715,0.40142 c -6.64717,24.80301 -12.92655,51.44985 -21.61525,66.04527 l -9.60572,-4.4038 z"
     sodipodi:nodetypes="cccccccccccccccccccccc" /><path
     id="path2"
     style="fill:url(#linearGradient8);stroke:#005a32;stroke-width:5.53146;stroke-linecap:round;stroke-linejoin:round;stroke-opacity:1"
     d="m 330.57921,64.115704 c -20.99379,4.95852 -46.2645,36.231606 -23.85032,65.203506 l -7.48242,3.40222 c 1.62134,19.10898 13.05551,26.18481 24.23691,32.64934 -7.40457,-1.67786 -15.76593,-0.23546 -26.57406,-23.57757 l -46.76659,1.41561 -2.33714,258.82984 89.789,-24.37936 -2.3391,-32.88488 -39.74925,3.96846 0.46704,-61.80131 10.28857,0.56625 c 17.75262,56.09273 65.55003,91.22896 95.86836,111.69723 l 33.26958,-29.88474 -35.60869,-28.51672 32.73582,-15.87381 -28.05956,-28.35018 -29.46068,20.97951 -16.83495,-26.64908 61.26047,1.70111 -0.73981,-139.11955 -45.11233,-1.79628 c -12.47202,-10.77114 -26.83771,-20.45061 -28.25383,-44.62607 l -12.9338,7.37066 c -4.1881,-12.86456 -6.38124,-27.905206 -1.81322,-50.324186 z m -33.66989,122.467746 76.46078,1.13485 -0.93605,14.74134 -74.35714,-0.56624 z m 74.35518,47.62859 1.63659,21.26025 -77.86385,-2.55048 0.70252,-17.00867 z" /><path
     style="fill:none;stroke:#005a32;stroke-width:6.08077;stroke-linecap:round;stroke-linejoin:round;stroke-opacity:1"
     d="m 317.16441,85.237014 c -4.31815,35.919196 10.90475,56.709836 29.71839,74.720546"
     id="path3"
     sodipodi:nodetypes="cc" /></g></svg>
