<?xml version="1.0" encoding="UTF-8"?>
<!DOCTYPE svg PUBLIC "-//W3C//DTD SVG 1.1//EN" "http://www.w3.org/Graphics/SVG/1.1/DTD/svg11.dtd">
<svg xmlns="http://www.w3.org/2000/svg" version="1.1" width="512px" height="512px" style="shape-rendering:geometricPrecision; text-rendering:geometricPrecision; image-rendering:optimizeQuality; fill-rule:evenodd; clip-rule:evenodd" xmlns:xlink="http://www.w3.org/1999/xlink">
<g><path style="opacity:0.962" fill="#040303" d="M 336.5,27.5 C 343.762,27.149 350.429,28.9823 356.5,33C 368.759,44.3356 377.926,57.8356 384,73.5C 393.012,95.8701 400.012,118.87 405,142.5C 432.773,157.606 453.773,179.273 468,207.5C 472.976,215.112 475.309,223.445 475,232.5C 476.284,240.019 478.951,247.019 483,253.5C 492.454,266.294 501.121,279.627 509,293.5C 507.981,316.558 501.315,337.891 489,357.5C 465.43,394.065 433.597,420.898 393.5,438C 345.67,457.214 296.003,464.881 244.5,461C 208.682,458.364 173.349,452.697 138.5,444C 127.151,436.66 116.985,427.827 108,417.5C 99.8307,405.166 92.1641,392.499 85,379.5C 73.9682,351.929 68.9682,323.262 70,293.5C 57.2512,280.089 45.2512,266.089 34,251.5C 13.1253,224.068 2.79196,193.068 3,158.5C 7.49581,156.163 12.3291,154.663 17.5,154C 32.2428,152.263 46.5762,153.93 60.5,159C 70.0586,163.029 79.5586,167.196 89,171.5C 100.434,158.733 112.6,146.566 125.5,135C 146.831,119.109 170.831,110.109 197.5,108C 225.697,107.821 253.863,107.321 282,106.5C 286.699,96.4275 291.032,86.0941 295,75.5C 301.312,59.6919 310.478,45.8586 322.5,34C 326.877,30.9748 331.544,28.8081 336.5,27.5 Z"/></g>
<g><path style="opacity:1" fill="#e3b0c0" d="M 86.5,337.5 C 85.8333,339.5 85.1667,341.5 84.5,343.5C 81.8938,328.961 81.0605,314.294 82,299.5C 84.207,298.003 84.8736,296.003 84,293.5C 73.6667,281.833 63.3333,270.167 53,258.5C 35.9368,239.392 23.9368,217.392 17,192.5C 14.8858,183.556 14.0524,174.556 14.5,165.5C 25.5124,162.823 36.5124,162.99 47.5,166C 55.5664,168.8 63.5664,171.8 71.5,175C 89.7138,184.942 108.714,192.942 128.5,199C 132.167,199.667 135.833,199.667 139.5,199C 142.167,196.333 142.167,193.667 139.5,191C 125.326,188.72 111.993,184.053 99.5,177C 115.375,154.782 135.708,138.115 160.5,127C 173.108,122.397 186.108,119.397 199.5,118C 228.523,117.183 257.523,117.349 286.5,118.5C 288.61,117.946 290.61,117.112 292.5,116C 297.244,96.3049 304.744,77.4715 315,59.5C 318.998,53.0213 323.832,47.1879 329.5,42C 336.538,37.341 343.538,37.341 350.5,42C 357.48,48.6417 363.313,56.1417 368,64.5C 379.997,87.6515 387.83,111.985 391.5,137.5C 368.896,128.945 345.563,126.111 321.5,129C 280.585,134.292 242.919,148.292 208.5,171C 160.728,201.434 124.228,241.934 99,292.5C 92.4964,306.852 88.3297,321.852 86.5,337.5 Z"/></g>
<g><path style="opacity:0.999" fill="#090808" d="M 345.5,56.5 C 350.421,56.0429 353.921,58.0429 356,62.5C 364.675,81.8677 373.341,101.201 382,120.5C 382.72,122.112 382.554,123.612 381.5,125C 378.5,125.667 375.5,125.667 372.5,125C 361.21,122.537 350.043,119.704 339,116.5C 338.333,101.833 338.333,87.1667 339,72.5C 339.069,66.1287 341.236,60.7954 345.5,56.5 Z"/></g>
<g><path style="opacity:1" fill="#f7f7f7" d="M 347.5,64.5 C 349.074,64.9371 350.241,65.9371 351,67.5C 358.385,83.6036 365.219,99.9369 371.5,116.5C 371,116.833 370.5,117.167 370,117.5C 362.17,115.418 354.337,113.418 346.5,111.5C 344.972,95.7592 345.305,80.0925 347.5,64.5 Z"/></g>
<g><path style="opacity:1" fill="#e4b1c1" d="M 318.5,138.5 C 382.708,132.262 429.708,157.428 459.5,214C 413.003,191.613 364.67,187.279 314.5,201C 244.942,221.925 191.109,263.092 153,324.5C 134.377,356.583 127.71,390.916 133,427.5C 98.4038,397.129 87.7371,359.796 101,315.5C 111.643,285.196 127.643,258.196 149,234.5C 187.428,192.196 233.928,162.362 288.5,145C 298.565,142.479 308.565,140.313 318.5,138.5 Z"/></g>
<g><path style="opacity:0.999" fill="#090809" d="M 43.5,190.5 C 50.8121,190.435 57.8121,191.935 64.5,195C 83.5685,204.614 102.068,215.114 120,226.5C 120.667,228.167 120.667,229.833 120,231.5C 110.043,245.913 100.21,260.413 90.5,275C 88.6332,275.711 87.1332,275.211 86,273.5C 76,260.167 66,246.833 56,233.5C 48.1744,223.016 42.3411,211.516 38.5,199C 39.1366,195.537 40.8033,192.704 43.5,190.5 Z"/></g>
<g><path style="opacity:1" fill="#fbfbfb" d="M 45.5,197.5 C 52.4295,198.196 59.0961,200.029 65.5,203C 81.2405,210.95 96.4072,219.783 111,229.5C 111.315,230.908 110.982,232.241 110,233.5C 103,243.833 96,254.167 89,264.5C 73.3899,246.554 59.7232,227.221 48,206.5C 46.5699,203.647 45.7366,200.647 45.5,197.5 Z"/></g>
<g><path style="opacity:1" fill="#fdfdfd" d="M 350.5,203.5 C 391.083,199.312 428.75,207.645 463.5,228.5C 464.343,236.551 466.509,244.218 470,251.5C 477.879,265.373 486.546,278.706 496,291.5C 498.885,297.63 499.218,303.964 497,310.5C 487.23,345.881 468.063,375.048 439.5,398C 407.022,423.231 370.355,439.231 329.5,446C 267.671,455.631 206.671,451.798 146.5,434.5C 140.52,417.946 139.02,400.946 142,383.5C 149.057,349.387 164.057,319.387 187,293.5C 230.669,244.077 285.169,214.077 350.5,203.5 Z"/></g>
<g><path style="opacity:0.999" fill="#090808" d="M 414.5,300.5 C 421.395,301.076 424.728,304.909 424.5,312C 424.363,314.898 423.863,317.731 423,320.5C 416.81,333.548 413.477,347.215 413,361.5C 420.917,374.393 431.417,376.893 444.5,369C 449.586,363.918 452.253,357.751 452.5,350.5C 452.063,343.522 450.396,336.855 447.5,330.5C 449.298,325.258 452.464,324.258 457,327.5C 463.259,340.255 463.925,353.255 459,366.5C 451.481,379.237 440.315,384.737 425.5,383C 418.488,381.413 412.655,377.913 408,372.5C 389.831,410.168 360.331,424.668 319.5,416C 304.58,410.095 295.08,399.595 291,384.5C 293.626,380.928 296.626,380.595 300,383.5C 311.605,405.72 329.772,413.887 354.5,408C 384.595,397.59 400.595,376.59 402.5,345C 391.917,339.97 382.751,333.136 375,324.5C 374.245,321.503 375.078,319.003 377.5,317C 390.144,311.962 402.477,306.462 414.5,300.5 Z"/></g>
<g><path style="opacity:1" fill="#deadbc" d="M 412.5,312.5 C 413.497,312.47 414.164,312.97 414.5,314C 412.254,321.326 409.587,328.492 406.5,335.5C 399.775,332.479 393.775,328.479 388.5,323.5C 396.582,319.789 404.582,316.122 412.5,312.5 Z"/></g>
<g><path style="opacity:1" fill="#634d53" d="M 86.5,337.5 C 86.8134,340.247 86.48,342.914 85.5,345.5C 84.7025,345.043 84.3691,344.376 84.5,343.5C 85.1667,341.5 85.8333,339.5 86.5,337.5 Z"/></g>
</svg>
